<svg width="381" height="339" viewBox="0 0 381 339" fill="none" xmlns="http://www.w3.org/2000/svg">
<path d="M116.243 236.795C119.263 230.797 116.852 223.487 110.856 220.467C104.86 217.448 97.5513 219.862 94.5306 225.861L48.7738 316.719C45.7531 322.717 48.1648 330.028 54.1605 333.047C60.1561 336.066 67.4653 333.652 70.4859 327.654L116.243 236.795Z" fill="#66E0F8"/>
<path d="M224.243 236.795C227.263 230.797 224.852 223.487 218.856 220.467C212.86 217.448 205.551 219.862 202.531 225.861L156.774 316.719C153.753 322.717 156.165 330.028 162.16 333.047C168.156 336.066 175.465 333.652 178.486 327.654L224.243 236.795Z" fill="#66E0F8"/>
<path d="M332.243 236.795C335.263 230.797 332.852 223.487 326.856 220.467C320.86 217.448 313.551 219.862 310.531 225.861L264.774 316.719C261.753 322.717 264.165 330.028 270.16 333.047C276.156 336.066 283.465 333.652 286.486 327.654L332.243 236.795Z" fill="#66E0F8"/>
<path d="M381 188.643C381 233.479 344.977 271.481 299.008 275.189H298.413H297.818L288.579 275.375H288.145L212.23 277C212.23 277 72.1048 276.603 65.9046 274.123C46.6151 267.129 29.944 254.37 18.1539 237.575C6.36382 220.78 0.0258068 200.763 7.86406e-05 180.242C-0.0256495 159.721 6.26216 139.689 18.0101 122.864C29.758 106.04 46.3971 93.2381 65.669 86.1966C68.254 69.1413 76.8622 53.5764 89.9337 42.3228C103.005 31.0691 119.675 24.8714 136.922 24.8528C144.499 24.8561 152.03 26.0403 159.243 28.3628C173.32 14.6443 191.129 5.38225 210.443 1.73524C229.756 -1.91178 249.716 0.218218 267.825 7.85874C285.934 15.4993 301.389 28.3111 312.255 44.6914C323.122 61.0717 328.918 80.2932 328.918 99.9512C328.918 103.151 328.761 106.314 328.447 109.439C359.77 123.306 381 154.114 381 188.643Z" fill="white"/>
</svg>
