<svg width="382" height="332" viewBox="0 0 382 332" fill="none" xmlns="http://www.w3.org/2000/svg">
<path d="M367.05 150.724C365.41 150.784 354.56 150.814 324.05 150.724L340.2 114.584C341.59 111.297 341.635 107.595 340.327 104.274C339.019 100.954 336.461 98.2779 333.202 96.8214C329.944 95.3648 326.244 95.2436 322.897 96.4836C319.55 97.7236 316.823 100.226 315.3 103.454L294.21 150.684L216.08 150.504L251.08 91.3242H303.42C306.972 91.228 310.347 89.7492 312.825 87.2027C315.304 84.6561 316.691 81.2428 316.691 77.6892C316.691 74.1356 315.304 70.7223 312.825 68.1757C310.347 65.6292 306.972 64.1504 303.42 64.0542H267.14L291.32 23.1342C292.307 21.591 292.973 19.8646 293.278 18.0583C293.583 16.2519 293.521 14.4025 293.095 12.6207C292.669 10.839 291.889 9.16129 290.8 7.68801C289.711 6.21472 288.337 4.97605 286.758 4.046C285.18 3.11596 283.43 2.51363 281.614 2.27501C279.798 2.03639 277.952 2.16637 276.187 2.6572C274.422 3.14802 272.774 3.98961 271.341 5.13168C269.909 6.27375 268.722 7.69285 267.85 9.30419L244.68 48.5142L223.95 19.3742C222.943 17.8454 221.638 16.5352 220.113 15.5219C218.588 14.5085 216.875 13.8127 215.075 13.4759C213.276 13.1392 211.427 13.1685 209.639 13.562C207.851 13.9555 206.16 14.7052 204.668 15.7664C203.177 16.8275 201.914 18.1783 200.955 19.7382C199.997 21.2981 199.363 23.0351 199.09 24.8455C198.818 26.656 198.913 28.5027 199.37 30.2756C199.827 32.0484 200.636 33.711 201.75 35.1642L229.49 74.2142L188.43 143.724L149.43 78.5542L177.36 34.5542C179.171 31.5069 179.724 27.8739 178.9 24.426C178.077 20.9781 175.943 17.9865 172.951 16.0858C169.959 14.1851 166.344 13.5249 162.873 14.2453C159.402 14.9656 156.349 17.0098 154.36 19.9442L133.78 52.3742L106.42 6.63419C104.563 3.53116 101.55 1.29271 98.0434 0.411292C94.5365 -0.470129 90.823 0.0776734 87.72 1.93419C84.617 3.7907 82.3785 6.80386 81.4971 10.3108C81.0607 12.0472 80.9705 13.8527 81.2318 15.6239C81.4931 17.3952 82.1007 19.0977 83.02 20.6342L109.02 64.1042H70.73C68.9083 64.0548 67.0953 64.371 65.3979 65.0341C63.7005 65.6971 62.1531 66.6936 60.8472 67.9646C59.5413 69.2356 58.5034 70.7554 57.7946 72.4342C57.0859 74.113 56.7207 75.9169 56.7207 77.7392C56.7207 79.5615 57.0859 81.3653 57.7946 83.0442C58.5034 84.723 59.5413 86.2428 60.8472 87.5138C62.1531 88.7848 63.7005 89.7813 65.3979 90.4443C67.0953 91.1073 68.9083 91.4235 70.73 91.3742H125.33L160.64 150.374L99.95 150.244L65.71 101.244C63.602 98.3702 60.4527 96.4355 56.9362 95.8541C53.4197 95.2728 49.8153 96.091 46.8944 98.1336C43.9736 100.176 41.9683 103.281 41.3077 106.784C40.6471 110.286 41.3838 113.908 43.36 116.874L66.55 150.134L13.63 150.014C10.0151 150.014 6.54826 151.45 3.99213 154.006C1.43601 156.562 0 160.029 0 163.644C0 167.259 1.43601 170.726 3.99213 173.282C6.54826 175.838 10.0151 177.274 13.63 177.274L67.01 177.444L43.25 211.864C42.2355 213.34 41.5216 215 41.149 216.752C40.7764 218.503 40.7523 220.311 41.0783 222.071C41.4042 223.832 42.0737 225.511 43.0486 227.013C44.0235 228.515 45.2846 229.81 46.76 230.824C48.2354 231.839 49.8962 232.553 51.6475 232.925C53.3988 233.298 55.2063 233.322 56.9669 232.996C58.7275 232.67 60.4067 232 61.9086 231.026C63.4104 230.051 64.7055 228.79 65.72 227.314L99.95 177.514L168.36 177.704L131.48 240.144C105.48 240.744 78.72 240.924 73.63 240.224C70.1079 239.407 66.4056 240.023 63.3375 241.936C60.2694 243.849 58.0869 246.902 57.27 250.424C56.4531 253.946 57.0689 257.649 58.9817 260.717C60.8946 263.785 63.9479 265.967 67.47 266.784C72.65 268.064 93.1 268.104 115.16 267.784L90.29 309.834C89.3793 311.375 88.781 313.081 88.5294 314.853C88.2777 316.625 88.3776 318.43 88.8233 320.163C89.269 321.897 90.0519 323.526 91.1271 324.957C92.2023 326.388 93.5489 327.593 95.09 328.504C96.6311 329.415 98.3364 330.013 100.109 330.265C101.881 330.516 103.685 330.417 105.419 329.971C107.153 329.525 108.782 328.742 110.213 327.667C111.644 326.592 112.849 325.245 113.76 323.704L138.5 281.844L153.42 315.354C154.493 317.762 156.241 319.806 158.453 321.24C160.664 322.674 163.244 323.436 165.88 323.434C167.789 323.438 169.678 323.036 171.42 322.254C174.722 320.782 177.305 318.06 178.6 314.684C179.896 311.309 179.799 307.558 178.33 304.254L155.52 253.014L188.57 197.074L223.76 255.914L195.95 302.844C195.036 304.383 194.434 306.087 194.179 307.859C193.923 309.631 194.019 311.435 194.461 313.17C194.903 314.905 195.683 316.535 196.755 317.969C197.827 319.402 199.171 320.61 200.71 321.524C202.249 322.438 203.953 323.04 205.725 323.296C207.497 323.551 209.301 323.455 211.036 323.013C212.77 322.571 214.401 321.792 215.834 320.719C217.268 319.647 218.476 318.303 219.39 316.764L239.71 282.544L264.95 324.714C266.835 327.76 269.842 329.942 273.322 330.79C276.802 331.637 280.476 331.082 283.55 329.243C286.624 327.405 288.852 324.431 289.751 320.964C290.651 317.497 290.152 313.816 288.36 310.714L262.36 267.194H294.75C298.302 267.098 301.677 265.619 304.155 263.073C306.634 260.526 308.021 257.113 308.021 253.559C308.021 250.006 306.634 246.592 304.155 244.046C301.677 241.499 298.302 240.02 294.75 239.924H245.95L208.81 177.824L294.03 178.014L310.53 224.194C311.133 225.881 312.062 227.433 313.264 228.76C314.467 230.088 315.919 231.166 317.538 231.933C319.157 232.699 320.911 233.139 322.7 233.228C324.489 233.317 326.278 233.052 327.965 232.449C329.652 231.846 331.203 230.917 332.531 229.715C333.859 228.512 334.937 227.06 335.703 225.441C336.47 223.822 336.91 222.068 336.999 220.279C337.087 218.49 336.823 216.701 336.22 215.014L323.01 178.014H341.85C367.47 178.014 368.36 177.914 369.08 177.854C372.594 177.509 375.834 175.803 378.108 173.101C380.382 170.4 381.51 166.916 381.25 163.394C380.76 156.094 374.54 150.014 367.05 150.724Z" fill="white"/>
</svg>
