<svg width="382" height="293" viewBox="0 0 382 293" fill="none" xmlns="http://www.w3.org/2000/svg">
<path opacity="0.7" d="M277.602 137.403C277.602 170.063 251.352 197.743 217.862 200.403H217.432H217.012L210.272 200.543H209.962L154.652 201.723C154.652 201.723 52.5818 201.513 48.0118 199.693C33.9592 194.6 21.8141 185.306 13.225 173.072C4.63582 160.839 0.0186201 146.26 5.61989e-05 131.313C-0.0185077 116.365 4.56246 101.774 13.1212 89.52C21.6799 77.2657 33.8019 67.9415 47.8418 62.8131C49.7242 50.3862 55.9981 39.0455 65.5256 30.8481C75.0532 22.6507 87.2032 18.1396 99.7719 18.1331C105.285 18.1393 110.764 19.0029 116.012 20.6931C126.264 10.6944 139.237 3.94128 153.308 1.27895C167.378 -1.38337 181.922 0.163323 195.118 5.72548C208.314 11.2876 219.577 20.6182 227.496 32.5494C235.416 44.4807 239.641 58.4827 239.642 72.8031C239.645 75.1074 239.531 77.4103 239.302 79.7031C262.142 89.8031 277.602 112.253 277.602 137.403Z" fill="#3F3F3F"/>
<path d="M231.952 216.863C231.645 216.174 231.146 215.589 230.515 215.177C229.883 214.766 229.146 214.545 228.392 214.543H196.292L223.972 165.543C224.315 164.956 224.497 164.288 224.497 163.608C224.497 162.928 224.315 162.26 223.972 161.673C223.645 161.078 223.163 160.583 222.576 160.241C221.989 159.899 221.321 159.724 220.642 159.733H174.122C173.313 159.723 172.523 159.973 171.868 160.447C171.212 160.921 170.726 161.592 170.482 162.363L147.222 232.653C147.008 233.227 146.94 233.845 147.022 234.452C147.104 235.059 147.334 235.636 147.692 236.133C148.059 236.633 148.538 237.04 149.09 237.323C149.642 237.606 150.252 237.756 150.872 237.763H183.742L162.812 286.633C162.438 287.477 162.379 288.426 162.645 289.31C162.911 290.193 163.485 290.952 164.262 291.449C165.04 291.946 165.969 292.148 166.883 292.018C167.796 291.889 168.633 291.436 169.242 290.743L189.632 267.793L231.262 221.003C231.766 220.454 232.1 219.771 232.223 219.036C232.345 218.301 232.251 217.546 231.952 216.863Z" fill="#FFDA2D"/>
<path d="M231.262 221.003L189.632 267.823V159.823H220.632C221.313 159.799 221.988 159.961 222.584 160.292C223.179 160.624 223.673 161.111 224.012 161.703C224.355 162.29 224.537 162.958 224.537 163.638C224.537 164.318 224.355 164.986 224.012 165.573L196.332 214.573H228.432C229.186 214.575 229.923 214.796 230.555 215.207C231.186 215.619 231.685 216.204 231.992 216.893C232.279 217.576 232.364 218.327 232.234 219.056C232.105 219.785 231.767 220.461 231.262 221.003Z" fill="#FDBF00"/>
<path d="M381.342 137.403C381.342 170.063 355.102 197.743 321.602 200.403H321.172H320.742L314.012 200.543H313.692L258.392 201.723C258.392 201.723 156.322 201.443 151.782 199.623C137.724 194.535 125.574 185.244 116.98 173.011C108.386 160.778 103.765 146.196 103.746 131.246C103.726 116.296 108.308 101.703 116.87 89.4471C125.432 77.1915 137.558 67.8682 151.602 62.7431C153.499 50.3324 159.776 39.0109 169.298 30.8281C178.82 22.6452 190.957 18.1418 203.512 18.1331C209.022 18.1395 214.497 19.0032 219.742 20.6931C229.993 10.691 242.967 3.93494 257.04 1.27068C271.112 -1.39357 285.658 0.152337 298.856 5.71489C312.054 11.2774 323.318 20.6095 331.238 32.5428C339.158 44.4762 343.382 58.4806 343.382 72.8031C343.385 75.1073 343.271 77.4103 343.042 79.7031C365.892 89.8031 381.342 112.253 381.342 137.403Z" fill="#3F3F3F"/>
</svg>
