<svg width="315" height="266" viewBox="0 0 315 266" fill="none" xmlns="http://www.w3.org/2000/svg">
<path d="M109.5 219C87.843 219 66.6723 212.578 48.6651 200.546C30.6579 188.514 16.623 171.412 8.33524 151.404C0.0474419 131.395 -2.12102 109.379 2.10406 88.1376C6.32914 66.8967 16.758 47.3857 32.0718 32.0719C47.3857 16.758 66.8967 6.32914 88.1376 2.10406C109.379 -2.12102 131.395 0.0474419 151.404 8.33524C171.412 16.623 188.514 30.6579 200.546 48.6651C212.578 66.6723 219 87.843 219 109.5C218.971 138.532 207.426 166.368 186.897 186.897C166.368 207.426 138.532 218.971 109.5 219V219ZM109.5 20.3994C91.8776 20.3994 74.6509 25.625 59.9984 35.4155C45.3458 45.206 33.9256 59.1217 27.1817 75.4027C20.4379 91.6837 18.6735 109.599 22.1114 126.883C25.5494 144.167 34.0354 160.043 46.4964 172.504C58.9573 184.965 74.8335 193.451 92.1174 196.889C109.401 200.327 127.316 198.562 143.597 191.818C159.878 185.074 173.794 173.654 183.584 159.002C193.375 144.349 198.601 127.122 198.601 109.5C198.576 85.8766 189.181 63.2277 172.477 46.5234C155.772 29.8191 133.123 20.4238 109.5 20.3994V20.3994Z" fill="#FBCF56"/>
<circle cx="109" cy="112" r="99" fill="#FBCF56"/>
<path d="M315 194.098C315 230.248 285.95 260.888 248.88 263.878H248.4H247.92L240.47 264.028H240.12L178.9 265.338C178.9 265.338 65.9 265.018 60.9 263.018C45.3445 257.38 31.9005 247.092 22.3927 233.551C12.885 220.009 7.77385 203.871 7.7531 187.325C7.73235 170.779 12.803 154.627 22.2768 141.062C31.7506 127.497 45.1687 117.176 60.71 111.498C62.7946 97.7469 69.7365 85.1973 80.2776 76.1238C90.8187 67.0503 104.262 62.0532 118.17 62.0382C124.281 62.0408 130.353 62.9956 136.17 64.8682C147.522 53.8074 161.884 46.3396 177.459 43.3991C193.033 40.4586 209.129 42.1759 223.733 48.3363C238.337 54.4967 250.8 64.8265 259.563 78.0335C268.326 91.2406 273 106.738 273 122.588C273 125.168 272.873 127.718 272.62 130.238C297.88 141.418 315 166.258 315 194.098Z" fill="white"/>
</svg>
