<svg width="42" height="57" viewBox="0 0 42 57" fill="none" xmlns="http://www.w3.org/2000/svg">
<path fill-rule="evenodd" clip-rule="evenodd" d="M21.9139 0C4.85277 0 -5.32357 19.0147 4.14026 33.2104L19.1989 55.7984C19.6994 56.5491 20.5419 57 21.4442 57C22.4071 57 23.297 56.4869 23.7795 55.6536L38.9216 29.499C46.5068 16.3974 37.0528 0 21.9139 0ZM21.5 34C29.5081 34 36 27.5081 36 19.5C36 11.4919 29.5081 5 21.5 5C13.4919 5 6.99999 11.4919 6.99999 19.5C6.99999 27.5081 13.4919 34 21.5 34Z" fill="white"/>
<path d="M19.5 9.5V21H28" stroke="white" stroke-width="3" stroke-linecap="round" stroke-linejoin="round"/>
</svg>
