<svg width="382" height="382" viewBox="0 0 382 382" fill="none" xmlns="http://www.w3.org/2000/svg">
<path d="M190.66 261.74C176.604 261.74 162.863 257.572 151.176 249.763C139.488 241.953 130.379 230.854 125 217.867C119.621 204.881 118.213 190.591 120.956 176.805C123.698 163.019 130.467 150.355 140.406 140.416C150.345 130.477 163.009 123.708 176.795 120.966C190.581 118.223 204.871 119.631 217.857 125.01C230.844 130.389 241.943 139.498 249.753 151.186C257.562 162.873 261.73 176.614 261.73 190.67C261.711 209.513 254.218 227.579 240.894 240.904C227.569 254.228 209.503 261.721 190.66 261.74ZM190.66 132.84C179.222 132.84 168.041 136.232 158.531 142.586C149.021 148.941 141.609 157.972 137.232 168.539C132.855 179.106 131.71 190.734 133.941 201.952C136.173 213.17 141.68 223.474 149.768 231.562C157.856 239.65 168.16 245.157 179.378 247.389C190.596 249.62 202.224 248.475 212.791 244.098C223.358 239.721 232.389 232.309 238.744 222.799C245.098 213.289 248.49 202.108 248.49 190.67C248.474 175.337 242.376 160.637 231.534 149.796C220.693 138.954 205.993 132.856 190.66 132.84Z" fill="#FFF"/>
<path d="M190.66 69.45C189.787 69.4553 188.922 69.2879 188.114 68.9576C187.307 68.6273 186.572 68.1405 185.953 67.5252C185.334 66.91 184.843 66.1784 184.508 65.3726C184.173 64.5668 184 63.7027 184 62.83V6.62C184 4.86427 184.697 3.18044 185.939 1.93895C187.18 0.697462 188.864 0 190.62 0C192.376 0 194.06 0.697462 195.301 1.93895C196.543 3.18044 197.24 4.86427 197.24 6.62V62.83C197.24 64.5788 196.548 66.2566 195.315 67.497C194.082 68.7373 192.409 69.4394 190.66 69.45Z" fill="#FFF"/>
<path d="M100.27 106.89C99.404 106.898 98.5449 106.735 97.7419 106.411C96.9389 106.087 96.2076 105.607 95.59 105L55.84 65.21C54.5988 63.9675 53.902 62.2828 53.903 60.5265C53.9039 58.7702 54.6025 57.0862 55.845 55.845C57.0875 54.6038 58.7723 53.907 60.5285 53.908C62.2848 53.9089 63.9688 54.6075 65.21 55.85L105 95.59C105.925 96.5158 106.556 97.6952 106.811 98.9791C107.066 100.263 106.935 101.594 106.434 102.803C105.933 104.012 105.085 105.046 103.997 105.774C102.909 106.501 101.629 106.89 100.32 106.89H100.27Z" fill="#FFF"/>
<path d="M62.83 197.29H6.62C4.86427 197.29 3.18044 196.593 1.93895 195.351C0.697462 194.11 0 192.426 0 190.67C0 188.914 0.697462 187.23 1.93895 185.989C3.18044 184.748 4.86427 184.05 6.62 184.05H62.83C64.5857 184.05 66.2696 184.748 67.511 185.989C68.7525 187.23 69.45 188.914 69.45 190.67C69.45 192.426 68.7525 194.11 67.511 195.351C66.2696 196.593 64.5857 197.29 62.83 197.29Z" fill="#FFF"/>
<path d="M60.52 327.43C59.211 327.43 57.9315 327.041 56.8432 326.314C55.755 325.586 54.9068 324.553 54.4059 323.343C53.905 322.134 53.7739 320.803 54.0292 319.519C54.2844 318.235 54.9146 317.056 55.84 316.13L95.59 276.38C96.1997 275.744 96.9303 275.236 97.7389 274.886C98.5476 274.536 99.4179 274.351 100.299 274.341C101.18 274.332 102.054 274.499 102.87 274.832C103.686 275.165 104.427 275.657 105.05 276.28C105.673 276.903 106.166 277.644 106.498 278.46C106.831 279.276 106.998 280.15 106.989 281.031C106.979 281.912 106.794 282.783 106.444 283.591C106.094 284.4 105.586 285.13 104.95 285.74L65.21 325.49C64.594 326.106 63.8627 326.594 63.058 326.927C62.2533 327.259 61.3909 327.431 60.52 327.43Z" fill="#FFF"/>
<path d="M190.66 381.33C188.904 381.33 187.22 380.633 185.979 379.391C184.737 378.15 184.04 376.466 184.04 374.71V318.51C184.04 316.754 184.737 315.07 185.979 313.829C187.22 312.587 188.904 311.89 190.66 311.89C192.416 311.89 194.1 312.587 195.341 313.829C196.583 315.07 197.28 316.754 197.28 318.51V374.71C197.28 376.466 196.583 378.15 195.341 379.391C194.1 380.633 192.416 381.33 190.66 381.33Z" fill="#FFF"/>
<path d="M320.8 327.43C319.045 327.428 317.362 326.731 316.12 325.49L276.38 285.74C275.182 284.49 274.521 282.82 274.539 281.089C274.558 279.358 275.254 277.702 276.478 276.478C277.702 275.254 279.358 274.558 281.089 274.539C282.82 274.521 284.49 275.182 285.74 276.38L325.48 316.13C326.405 317.056 327.036 318.235 327.291 319.519C327.546 320.803 327.415 322.134 326.914 323.343C326.413 324.553 325.565 325.586 324.477 326.314C323.389 327.041 322.109 327.43 320.8 327.43Z" fill="#FFF"/>
<path d="M374.71 197.29H318.5C316.744 197.29 315.06 196.593 313.819 195.351C312.577 194.11 311.88 192.426 311.88 190.67C311.88 188.914 312.577 187.23 313.819 185.989C315.06 184.748 316.744 184.05 318.5 184.05H374.71C376.466 184.05 378.15 184.748 379.391 185.989C380.633 187.23 381.33 188.914 381.33 190.67C381.33 192.426 380.633 194.11 379.391 195.351C378.15 196.593 376.466 197.29 374.71 197.29Z" fill="#FFF"/>
<path d="M281.06 106.89C279.751 106.89 278.471 106.501 277.383 105.774C276.295 105.046 275.447 104.013 274.946 102.803C274.445 101.594 274.314 100.263 274.569 98.9791C274.824 97.6952 275.455 96.5159 276.38 95.59L316.12 55.85C317.37 54.6519 319.04 53.9911 320.771 54.0094C322.502 54.0277 324.158 54.7236 325.382 55.948C326.606 57.1723 327.302 58.8276 327.321 60.559C327.339 62.2904 326.678 63.9601 325.48 65.21L285.74 105C284.491 106.224 282.809 106.904 281.06 106.89Z" fill="#FFF"/>
<circle cx="191" cy="191" r="99" fill="#FFF"/>
</svg>
